<?xml version="1.0" standalone="no"?>
<!DOCTYPE svg PUBLIC "-//W3C//DTD SVG 20010904//EN"
 "http://www.w3.org/TR/2001/REC-SVG-20010904/DTD/svg10.dtd">
<svg version="1.0" xmlns="http://www.w3.org/2000/svg"
 width="512.000000pt" height="513.000000pt" viewBox="0 0 512.000000 513.000000"
 preserveAspectRatio="xMidYMid meet">

<g transform="translate(0.000000,513.000000) scale(0.100000,-0.100000)"
fill="#ffb508" stroke="none">
<path d="M2244 5116 c-35 -15 -44 -32 -44 -80 0 -38 15 -54 85 -89 144 -72
166 -204 55 -330 -50 -57 -194 -148 -373 -236 -217 -107 -292 -171 -339 -293
-41 -105 -19 -275 52 -395 11 -19 20 -36 20 -37 0 -2 -12 -7 -27 -11 -47 -11
-146 -71 -191 -116 -23 -23 -54 -67 -70 -98 -24 -50 -27 -67 -27 -156 0 -112
18 -188 61 -251 25 -37 27 -46 28 -169 2 -109 6 -139 25 -188 31 -80 112 -165
196 -206 36 -18 65 -34 65 -36 0 -27 616 -2292 632 -2324 55 -108 198 -133
293 -50 18 16 38 42 45 58 6 16 150 545 319 1177 l308 1147 52 23 c105 47 174
122 212 232 16 46 20 79 18 167 l-2 110 37 56 c49 74 66 134 66 232 0 222
-101 371 -294 433 -77 24 -77 24 -50 94 9 25 19 85 22 137 12 250 -114 390
-371 410 -66 5 -78 9 -73 22 3 9 17 50 31 91 108 313 -10 560 -310 649 -134
40 -387 55 -451 27z m368 -160 c141 -30 242 -107 269 -203 51 -185 -65 -451
-251 -576 -25 -16 -51 -37 -57 -45 -20 -24 -16 -76 7 -97 44 -40 127 -5 227
97 l52 53 129 -6 c159 -7 207 -26 250 -97 24 -42 27 -56 27 -142 0 -127 -16
-158 -161 -310 -78 -82 -114 -126 -114 -142 0 -52 53 -88 102 -69 13 5 55 41
94 79 l72 71 67 -10 c175 -24 253 -108 263 -282 6 -93 -12 -147 -64 -201 l-35
-36 -639 0 c-456 0 -646 -3 -664 -11 -35 -16 -50 -63 -31 -99 8 -15 22 -30 30
-34 9 -3 307 -6 661 -6 l644 0 0 -67 c-1 -106 -43 -177 -135 -227 -40 -21 -41
-21 -800 -21 -760 0 -760 0 -800 22 -85 45 -126 114 -133 221 l-5 72 141 0
c140 0 141 0 161 26 28 35 26 69 -4 99 -23 24 -29 25 -159 25 l-134 0 -25 30
c-87 103 -87 281 -1 362 36 33 117 74 166 82 35 6 40 4 95 -54 41 -41 67 -60
84 -60 54 0 92 57 68 103 -7 12 -39 54 -72 92 -204 236 -236 418 -95 540 24
20 117 74 208 119 200 100 294 160 381 246 93 92 124 159 124 270 0 71 -4 94
-27 143 l-27 57 22 0 c12 0 52 -7 89 -14z m-395 -2607 c216 -146 469 -281 704
-379 68 -29 127 -55 131 -59 7 -6 -66 -298 -77 -310 -14 -13 -435 179 -623
286 -114 64 -317 189 -344 212 -6 5 -88 296 -88 314 0 4 43 7 95 7 l96 0 106
-71z m952 -36 c-16 -60 -37 -137 -46 -173 -8 -36 -19 -69 -23 -73 -9 -10 -215
77 -384 163 -126 64 -326 178 -326 186 0 2 182 4 404 4 l404 0 -29 -107z
m-999 -496 c169 -103 467 -250 687 -336 l81 -32 -29 -107 c-16 -59 -34 -127
-41 -152 -6 -25 -14 -48 -17 -52 -4 -4 -27 -1 -51 6 -68 20 -113 -5 -113 -64
0 -37 25 -66 72 -81 20 -6 39 -15 44 -18 11 -10 -74 -321 -88 -321 -10 0 -145
53 -328 128 -30 12 -39 22 -48 56 -6 23 -31 114 -55 204 -24 90 -44 168 -44
173 0 5 37 -9 81 -32 93 -46 131 -51 161 -21 24 23 27 74 7 99 -7 8 -79 48
-160 88 l-147 74 -22 83 c-13 46 -40 147 -60 225 -44 163 -51 154 70 80z m415
-1269 c44 -17 84 -34 89 -39 9 -8 -53 -259 -80 -326 -16 -39 -47 -44 -68 -10
-8 12 -37 110 -66 217 -28 107 -53 203 -56 213 -5 16 -1 16 48 -4 29 -12 89
-35 133 -51z"/>
</g>
</svg>
